# xmcd
#
# Track frame offsets: 
#        150
#        16095
#        37350
#        52725
#        78480
#        96735
#        115260
#        139230
#        164430
#        186750
#        202575
#        221055
#        242055
#        260310
#        277335
#        294885
#        313065
#        327600
#
# Disc length: 4635 seconds
#
# Revision: 0
# Processed by: cddbd v1.5.2PL0 Copyright (c) Steve Scherf et al.
# Submitted via: ExactAudioCopy v1.1
#
DISCID=12121912
DTITLE=Garou - Le meilleur
DYEAR=2014
DGENRE=Variete Francaise
TTITLE0=Sous le vent (duo avec Celine Dion)
TTITLE1=Seul
TTITLE2=La riviere de notre enfance (duo avec Michel Sardou)
TTITLE3=Que l'amour est violent
TTITLE4=L'adieu
TTITLE5=Gitan
TTITLE6=Je n'attendais que vous
TTITLE7=Demande au Soleil
TTITLE8=Belle medley
TTITLE9=Je suis le meme
TTITLE10=Lis dans mes yeux
TTITLE11=Au plaisir de ton corps
TTITLE12=New year's day
TTITLE13=Criminel
TTITLE14=L'aveu
TTITLE15=Le monde est stone (live)
TTITLE16=Reviens (ou te caches-tu)
TTITLE17=Jusqu'a me perdre
EXTD=
EXTT0=
EXTT1=
EXTT2=
EXTT3=
EXTT4=
EXTT5=
EXTT6=
EXTT7=
EXTT8=
EXTT9=
EXTT10=
EXTT11=
EXTT12=
EXTT13=
EXTT14=
EXTT15=
EXTT16=
EXTT17=
PLAYORDER=
